<svg xmlns="http://www.w3.org/2000/svg" width="3095" height="566" fill="none" viewBox="0 0 3095 566">
  <path fill="#13521A" d="M757.594 325.641c0 15.364 2.278 28.906 6.836 40.625 4.687 11.718 10.872 21.549 18.554 29.492 7.683 7.943 16.472 13.997 26.368 18.164 10.026 4.036 20.442 6.055 31.25 6.055 8.333 0 16.08-1.433 23.242-4.297a80.242 80.242 0 0 0 19.922-11.524c6.25-4.817 12.109-10.416 17.578-16.797a300.078 300.078 0 0 0 15.625-20.312l24.219 17.773c-5.079 8.464-11.329 16.602-18.75 24.414-7.422 7.683-15.756 14.519-25 20.508-9.115 5.99-19.076 10.742-29.883 14.258-10.808 3.516-22.266 5.273-34.375 5.273-20.313 0-39.063-2.929-56.25-8.789-17.058-5.989-31.836-14.388-44.336-25.195-12.37-10.807-22.071-23.763-29.102-38.867-6.901-15.234-10.351-32.162-10.351-50.781 0-17.969 3.32-34.506 9.961-49.61 6.64-15.234 15.95-28.32 27.929-39.258 11.979-11.067 26.367-19.661 43.164-25.781 16.797-6.12 35.352-9.18 55.664-9.18 13.672 0 26.172 1.628 37.5 4.883 11.329 3.125 21.615 7.552 30.86 13.282 9.245 5.599 17.513 12.304 24.804 20.117 7.292 7.812 13.672 16.406 19.141 25.781l-24.609 17.187a183.527 183.527 0 0 0-16.211-19.921c-5.86-6.381-12.11-11.914-18.75-16.602-6.511-4.818-13.477-8.594-20.899-11.328-7.291-2.734-14.909-4.102-22.851-4.102-10.938 0-21.354 2.084-31.25 6.25-9.766 4.037-18.36 10.026-25.782 17.969-7.421 7.943-13.346 17.839-17.773 29.688-4.297 11.718-6.445 25.26-6.445 40.625ZM1047.27 447.32c-14.2 0-27.35-2.343-39.46-7.031-11.977-4.687-22.328-11.068-31.052-19.141-8.724-8.203-15.56-17.773-20.508-28.71-4.948-11.068-7.422-22.982-7.422-35.743 0-13.672 2.409-26.302 7.227-37.89 4.948-11.589 11.784-21.55 20.507-29.883 8.724-8.464 19.076-15.039 31.058-19.727 12.11-4.687 25.26-7.031 39.45-7.031 14.19 0 27.34 2.344 39.45 7.031 12.11 4.558 22.53 10.873 31.25 18.946 8.86 8.073 15.76 17.578 20.71 28.515 5.07 10.808 7.61 22.461 7.61 34.961 0 13.151-2.54 25.521-7.61 37.11-4.95 11.588-11.85 21.744-20.71 30.468-8.72 8.724-19.14 15.625-31.25 20.703-11.98 4.948-25.06 7.422-39.25 7.422Zm6.25-21.679c4.94 0 9.5-1.563 13.67-4.688 4.16-3.255 7.74-7.552 10.74-12.891 2.99-5.468 5.34-11.718 7.03-18.75 1.69-7.161 2.54-14.648 2.54-22.46 0-11.329-.85-22.006-2.54-32.032-1.69-10.156-4.43-19.01-8.2-26.562-3.78-7.552-8.73-13.542-14.85-17.969-6.12-4.427-13.6-6.641-22.46-6.641-4.29 0-8.4 1.563-12.3 4.688-3.91 3.125-7.36 7.357-10.35 12.695-3 5.209-5.41 11.328-7.23 18.36-1.82 7.031-2.73 14.388-2.73 22.07 0 11.458 1.04 22.266 3.12 32.422 2.08 10.156 5.14 19.075 9.18 26.758 4.04 7.682 8.92 13.802 14.65 18.359 5.86 4.427 12.43 6.641 19.73 6.641Zm321.5-102.735c0-3.906-.52-7.617-1.56-11.133-.91-3.645-2.21-6.77-3.91-9.375-1.69-2.604-3.71-4.687-6.05-6.25-2.34-1.562-4.88-2.343-7.62-2.343-3.12 0-6.38.521-9.76 1.562-3.39 1.042-6.71 2.474-9.96 4.297a60.52 60.52 0 0 0-9.38 6.055c-2.99 2.343-5.53 4.817-7.62 7.422V444h-53.71V322.906c0-3.906-.52-7.617-1.56-11.133-1.04-3.645-2.47-6.77-4.3-9.375-1.69-2.604-3.71-4.687-6.05-6.25-2.34-1.562-4.75-2.343-7.23-2.343-2.86 0-5.99.521-9.37 1.562-3.26 1.042-6.51 2.474-9.77 4.297-3.25 1.693-6.44 3.711-9.57 6.055-3.12 2.343-5.92 4.817-8.4 7.422V444h-53.9V265.875h53.9v15.234c8.6-5.729 17.39-10.286 26.37-13.671 9.11-3.516 17.9-5.274 26.37-5.274 4.68 0 9.37.521 14.06 1.563 4.82 1.041 9.38 2.539 13.67 4.492 4.43 1.953 8.47 4.297 12.11 7.031 3.65 2.734 6.77 5.859 9.38 9.375 4.03-3.255 8.52-6.25 13.47-8.984a97.805 97.805 0 0 1 15.43-7.227c5.47-1.953 11.01-3.45 16.6-4.492 5.6-1.172 11.14-1.758 16.61-1.758 7.55 0 14.71 1.497 21.48 4.492 6.9 2.865 12.89 6.901 17.97 12.11 5.21 5.078 9.31 11.067 12.3 17.968 3 6.771 4.5 14.063 4.5 21.875V444h-54.5V322.906Zm292.02 0c0-3.906-.52-7.617-1.56-11.133-.91-3.645-2.22-6.77-3.91-9.375-1.69-2.604-3.71-4.687-6.05-6.25-2.35-1.562-4.89-2.343-7.62-2.343-3.13 0-6.38.521-9.77 1.562-3.38 1.042-6.7 2.474-9.96 4.297a60.434 60.434 0 0 0-9.37 6.055c-3 2.343-5.54 4.817-7.62 7.422V444h-53.71V322.906c0-3.906-.52-7.617-1.56-11.133-1.05-3.645-2.48-6.77-4.3-9.375-1.69-2.604-3.71-4.687-6.06-6.25-2.34-1.562-4.75-2.343-7.22-2.343-2.87 0-5.99.521-9.38 1.562-3.25 1.042-6.51 2.474-9.76 4.297-3.26 1.693-6.45 3.711-9.57 6.055-3.13 2.343-5.93 4.817-8.4 7.422V444h-53.91V265.875h53.91v15.234c8.59-5.729 17.38-10.286 26.37-13.671 9.11-3.516 17.9-5.274 26.36-5.274 4.69 0 9.38.521 14.07 1.563 4.81 1.041 9.37 2.539 13.67 4.492 4.42 1.953 8.46 4.297 12.11 7.031 3.64 2.734 6.77 5.859 9.37 9.375 4.04-3.255 8.53-6.25 13.48-8.984a97.805 97.805 0 0 1 15.43-7.227c5.47-1.953 11-3.45 16.6-4.492 5.6-1.172 11.13-1.758 16.6-1.758 7.55 0 14.71 1.497 21.49 4.492 6.9 2.865 12.89 6.901 17.96 12.11 5.21 5.078 9.31 11.067 12.31 17.968 2.99 6.771 4.49 14.063 4.49 21.875V444h-54.49V322.906Zm162.52 124.414c-14.19 0-27.34-2.343-39.45-7.031-11.98-4.687-22.33-11.068-31.06-19.141-8.72-8.203-15.56-17.773-20.5-28.71-4.95-11.068-7.43-22.982-7.43-35.743 0-13.672 2.41-26.302 7.23-37.89 4.95-11.589 11.79-21.55 20.51-29.883 8.72-8.464 19.07-15.039 31.05-19.727 12.11-4.687 25.26-7.031 39.46-7.031 14.19 0 27.34 2.344 39.45 7.031 12.11 4.558 22.53 10.873 31.25 18.946 8.85 8.073 15.76 17.578 20.7 28.515 5.08 10.808 7.62 22.461 7.62 34.961 0 13.151-2.54 25.521-7.62 37.11-4.94 11.588-11.85 21.744-20.7 30.468-8.72 8.724-19.14 15.625-31.25 20.703-11.98 4.948-25.06 7.422-39.26 7.422Zm6.25-21.679c4.95 0 9.51-1.563 13.67-4.688 4.17-3.255 7.75-7.552 10.75-12.891 2.99-5.468 5.34-11.718 7.03-18.75 1.69-7.161 2.54-14.648 2.54-22.46 0-11.329-.85-22.006-2.54-32.032-1.69-10.156-4.43-19.01-8.21-26.562-3.77-7.552-8.72-13.542-14.84-17.969-6.12-4.427-13.61-6.641-22.46-6.641-4.3 0-8.4 1.563-12.3 4.688-3.91 3.125-7.36 7.357-10.36 12.695-2.99 5.209-5.4 11.328-7.22 18.36-1.83 7.031-2.74 14.388-2.74 22.07 0 11.458 1.04 22.266 3.13 32.422 2.08 10.156 5.14 19.075 9.18 26.758 4.03 7.682 8.92 13.802 14.65 18.359 5.86 4.427 12.43 6.641 19.72 6.641Zm211.74-103.711c0-9.115-1.82-16.081-5.46-20.899-3.52-4.817-7.69-7.226-12.5-7.226-2.35 0-5.02.455-8.01 1.367-3 .911-6.19 2.279-9.57 4.101-3.26 1.693-6.64 3.776-10.16 6.25-3.38 2.344-6.7 5.013-9.96 8.008V444h-54.3V265.875h54.3v13.867c8.2-6.12 17.06-10.547 26.56-13.281 9.64-2.865 19.21-4.297 28.71-4.297 7.3 0 14.2 1.432 20.71 4.297 6.64 2.865 12.43 6.771 17.38 11.719 4.95 4.817 8.85 10.547 11.72 17.187 2.99 6.511 4.49 13.542 4.49 21.094V444h-53.91V321.93Zm151.61-114.258h82.23c13.28 0 25.72 1.432 37.31 4.297 11.58 2.734 21.61 6.901 30.07 12.5 8.6 5.469 15.37 12.37 20.32 20.703 4.94 8.203 7.42 17.838 7.42 28.906 0 11.198-2.48 20.964-7.42 29.297-4.82 8.333-11.2 15.299-19.14 20.898-7.95 5.469-17 9.571-27.15 12.305-10.16 2.734-20.58 4.102-31.25 4.102h-34.18V444h-58.21V207.672Zm58.21 111.719h18.94c6.51 0 12.24-1.172 17.19-3.516 4.95-2.474 9.05-5.729 12.3-9.766 3.26-4.166 5.67-8.919 7.23-14.257 1.69-5.339 2.54-10.938 2.54-16.797 0-7.162-1.11-13.477-3.32-18.946-2.08-5.599-5.01-10.286-8.79-14.062-3.64-3.776-7.94-6.641-12.89-8.594-4.95-1.953-10.29-2.93-16.02-2.93h-17.18v88.868ZM2446.06 444h-53.9V265.875h53.9v13.281c6.12-6.12 12.7-11.067 19.73-14.844 7.16-3.776 14.84-5.664 23.05-5.664 4.81 0 9.31.651 13.47 1.954 4.3 1.302 8.01 3.059 11.14 5.273 3.25 2.214 5.79 4.818 7.61 7.813 1.83 2.864 2.74 5.924 2.74 9.179 0 3.125-.65 6.055-1.96 8.789a18.136 18.136 0 0 1-5.07 6.641c-2.09 1.823-4.56 3.255-7.43 4.297-2.73 1.041-5.73 1.562-8.98 1.562-4.3 0-7.81-.651-10.55-1.953a83.928 83.928 0 0 1-7.61-4.492 76.41 76.41 0 0 0-6.84-4.297c-2.21-1.432-5.08-2.148-8.59-2.148-1.83 0-3.65.716-5.47 2.148-1.83 1.302-3.65 3.125-5.47 5.469-1.69 2.213-3.39 4.818-5.08 7.812a121.917 121.917 0 0 0-4.69 9.18V444Zm157.84 3.906c-12.76 0-24.68-2.344-35.74-7.031-11.07-4.687-20.77-11.003-29.11-18.945-8.33-7.943-14.9-17.188-19.72-27.735-4.69-10.677-7.03-21.875-7.03-33.593 0-14.063 2.21-27.084 6.64-39.063 4.42-11.979 10.67-22.331 18.75-31.055 8.07-8.854 17.77-15.755 29.1-20.703 11.46-5.078 24.15-7.617 38.09-7.617 12.5 0 23.89 2.018 34.17 6.055 10.29 3.906 19.08 9.31 26.37 16.211 7.42 6.771 13.15 14.843 17.19 24.218 4.17 9.245 6.25 19.141 6.25 29.688h-123.44c.39 9.896 1.76 19.336 4.1 28.32 2.48 8.985 5.8 16.927 9.96 23.828 4.3 6.771 9.25 12.175 14.85 16.211 5.73 4.037 12.04 6.055 18.94 6.055 5.99 0 11.85-1.042 17.58-3.125 5.73-2.083 11-4.883 15.82-8.398 4.95-3.516 9.18-7.618 12.7-12.305 3.64-4.818 6.25-9.896 7.81-15.234l27.73 4.101c-2.73 9.635-7.16 18.75-13.28 27.344a106.336 106.336 0 0 1-21.68 22.265 101.278 101.278 0 0 1-26.95 15.04c-9.64 3.645-19.34 5.468-29.1 5.468Zm22.85-127.929c-.39-5.209-1.5-9.961-3.32-14.258-1.82-4.427-4.17-8.203-7.03-11.328-2.87-3.125-6.19-5.534-9.96-7.227-3.65-1.693-7.62-2.539-11.92-2.539-3.38 0-6.7.846-9.96 2.539-3.12 1.693-6.05 4.102-8.79 7.227-2.6 2.994-4.81 6.705-6.64 11.132-1.82 4.297-2.99 9.115-3.51 14.454h61.13Zm77.17-54.102h54.3v13.867c6.25-4.948 13.41-9.114 21.48-12.5 8.08-3.385 17.39-5.078 27.93-5.078 11.46 0 21.81 2.279 31.06 6.836 9.37 4.427 17.38 10.482 24.02 18.164 6.64 7.552 11.72 16.471 15.24 26.758 3.64 10.156 5.46 20.898 5.46 32.226 0 14.584-2.14 28.06-6.44 40.43-4.3 12.37-10.42 23.047-18.36 32.031-7.81 8.985-17.38 16.016-28.71 21.094-11.33 5.078-24.02 7.617-38.09 7.617-7.03 0-13.21-.26-18.55-.781a50.297 50.297 0 0 1-15.04-3.906v71.484h-54.3V265.875Zm54.3 128.516c0 4.297.78 8.333 2.34 12.109 1.7 3.776 3.97 7.096 6.84 9.961 2.99 2.865 6.51 5.143 10.55 6.836 4.16 1.562 8.78 2.344 13.86 2.344 4.56 0 8.86-1.563 12.89-4.688 4.17-3.125 7.75-7.422 10.75-12.891 3.12-5.468 5.59-11.979 7.42-19.531 1.82-7.682 2.73-16.015 2.73-25 0-23.047-3.06-40.429-9.18-52.148-5.99-11.719-13.74-17.578-23.24-17.578-6.9 0-13.35 2.148-19.34 6.445-5.86 4.297-11.06 9.505-15.62 15.625v78.516Z"/>
  <circle cx="163" cy="163" r="163" fill="#BAF1A5"/>
  <circle cx="456.5" cy="325.5" r="110.5" fill="#BAF1A5"/>
  <circle cx="239.5" cy="479.5" r="86.5" fill="#BAF1A5"/>
</svg>
